<svg height="128" viewBox="0 0 1500 504" width="1500" xmlns="http://www.w3.org/2000/svg" xmlns:xlink="http://www.w3.org/1999/xlink">
  <radialGradient id="a" cx="0" cy="0" gradientTransform="matrix(174.9364 0 0 -174.9364 166.25447 175.30861)" gradientUnits="userSpaceOnUse" r="1"
                  spreadMethod="pad">
    <stop offset="0" stop-color="#60e862"/>
    <stop offset=".129032" stop-color="#60e862"/>
    <stop offset=".38959409" stop-color="#60e862"/>
    <stop offset=".876344" stop-color="#42b14c"/>
    <stop offset="1" stop-color="#29a54c"/>
  </radialGradient>
  <linearGradient id="b">
    <stop offset="0" stop-color="#60e862"/>
    <stop offset="1" stop-color="#97f597"/>
  </linearGradient>
  <linearGradient id="c" gradientTransform="matrix(.1348185 -16.058933 -16.058933 -.1348185 165.23708 50.704102)" gradientUnits="userSpaceOnUse"
                  spreadMethod="pad" x1="0" x2="1" xlink:href="#b" y1="0" y2="0"/>
  <linearGradient id="d">
    <stop offset="0" stop-color="#97f597"/>
    <stop offset=".317204" stop-color="#60e862"/>
    <stop offset=".55527157" stop-color="#60e862"/>
    <stop offset="1" stop-color="#42b14c"/>
  </linearGradient>
  <linearGradient id="e" gradientTransform="matrix(1.1007249 -303.78912 -303.78912 -1.1007249 164.35597 299.25729)" gradientUnits="userSpaceOnUse"
                  spreadMethod="pad" x1="0" x2="1" xlink:href="#d" y1="0" y2="0"/>
  <radialGradient id="f" cx="0" cy="0" gradientTransform="matrix(60.911285 0 0 -63.112213 85.29335 136.38768)" gradientUnits="userSpaceOnUse" r="1"
                  spreadMethod="pad" xlink:href="#b"/>
  <clipPath id="g">
    <path d="m0 378.618h328.516v-378.618h-328.516z"/>
  </clipPath>
  <linearGradient id="h">
    <stop offset="0" stop-color="#6d6e71"/>
    <stop offset=".36374018" stop-color="#231f20"/>
    <stop offset=".943462" stop-color="#231f20"/>
    <stop offset="1" stop-color="#231f20"/>
  </linearGradient>
  <linearGradient id="i" gradientTransform="matrix(-75.499992 86.000069 86.000069 75.499992 134.14973 80.55349)" gradientUnits="userSpaceOnUse"
                  spreadMethod="pad" x1="0" x2="1" xlink:href="#h" y1="0" y2="0"/>
  <radialGradient id="j" cx="0" cy="0" gradientTransform="matrix(20.2197 0 0 -20.2197 164.19638 37.690399)" gradientUnits="userSpaceOnUse" r="1"
                  spreadMethod="pad">
    <stop offset="0" stop-color="#376d2c"/>
    <stop offset=".49082" stop-color="#27572c"/>
    <stop offset="1" stop-color="#132707"/>
  </radialGradient>
  <clipPath id="k">
    <path d="m0 378.618h328.516v-378.618h-328.516z"/>
  </clipPath>
  <radialGradient id="l" cx="0" cy="0" gradientTransform="matrix(-60.911041 0 0 -63.111961 243.23613 136.35455)" gradientUnits="userSpaceOnUse" r="1"
                  spreadMethod="pad" xlink:href="#b"/>
  <linearGradient id="m" gradientTransform="matrix(75.499397 85.999397 -85.999397 75.499397 194.38023 80.520729)" gradientUnits="userSpaceOnUse"
                  spreadMethod="pad" x1="0" x2="1" xlink:href="#h" y1="0" y2="0"/>
  <clipPath id="n">
    <path d="m0 378.618h328.516v-378.618h-328.516z"/>
  </clipPath>
  <linearGradient id="o">
    <stop offset="0" stop-color="#231f20"/>
    <stop offset=".0565383" stop-color="#231f20"/>
    <stop offset=".20179413" stop-color="#231f20"/>
    <stop offset=".66129" stop-color="#5c5c5f"/>
    <stop offset=".994624" stop-color="#dadbdc"/>
    <stop offset="1" stop-color="#dadbdc"/>
  </linearGradient>
  <linearGradient id="p" gradientTransform="matrix(46.251404 45.729973 45.729973 -46.251404 236.02533 126.24284)" gradientUnits="userSpaceOnUse"
                  spreadMethod="pad" x1="0" x2="1" xlink:href="#o" y1="0" y2="0"/>
  <linearGradient id="q" gradientTransform="matrix(9.3421087 10.832795 10.832795 -9.3421087 94.390717 40.683426)" gradientUnits="userSpaceOnUse"
                  spreadMethod="pad" x1="0" x2="1" xlink:href="#d" y1="0" y2="0"/>
  <linearGradient id="r" gradientTransform="matrix(-7.7736073 9.0140133 -9.0140133 -7.7736073 237.12341 43.467983)" gradientUnits="userSpaceOnUse"
                  spreadMethod="pad" x1="0" x2="1" xlink:href="#d" y1="0" y2="0"/>
  <linearGradient id="s" gradientTransform="matrix(4.0239291 -110.17229 -102.81268 -4.3430362 159.78651 338.7294)" gradientUnits="userSpaceOnUse"
                  spreadMethod="pad" x1="0" x2="1" y1="0" y2="0">
    <stop offset="0" stop-color="#c7ffba"/>
    <stop offset="1" stop-color="#60e862"/>
  </linearGradient>
  <linearGradient id="t">
    <stop offset="0" stop-color="#fff"/>
    <stop offset="1" stop-color="#adafb2"/>
  </linearGradient>
  <linearGradient id="u" gradientTransform="matrix(-4.0771885 -12.773058 -12.773058 4.0771885 270.96481 176.85367)" gradientUnits="userSpaceOnUse"
                  spreadMethod="pad" x1="0" x2="1" xlink:href="#t" y1="0" y2="0"/>
  <linearGradient id="v" gradientTransform="matrix(-47.899815 47.359798 -47.359798 -47.899815 95.013794 123.7486)" gradientUnits="userSpaceOnUse"
                  spreadMethod="pad" x1="0" x2="1" xlink:href="#o" y1="0" y2="0"/>
  <linearGradient id="w" gradientTransform="matrix(4.0771885 -12.773058 12.773058 4.0771885 59.238491 175.18736)" gradientUnits="userSpaceOnUse"
                  spreadMethod="pad" x1="0" x2="1" xlink:href="#t" y1="0" y2="0"/>
  <g transform="matrix(1.3333333 0 0 -1.3333333 0 504.824)">
    <path
      d="m123.677 371.723c-23.54-5.355-44.956-16.061-64.416-32.122-6.203-5.27-11.981-11.219-17.505-17.762-28.214-34.331-41.302-76.652-39.262-127.046 2.719-26.769 10.708-51.754 24.051-74.955 21.075-35.264 45.549-64.156 73.422-86.848 13.936-10.961 29.488-19.887 46.654-26.937 12.493-4.844 24.22-5.013 35.266-.426 17.082 7.222 32.633 16.402 46.656 27.363 27.872 22.692 52.348 51.584 73.421 86.848 13.343 23.201 21.33 48.186 24.051 74.955 2.039 50.394-11.046 92.715-39.262 127.046-17.589 20.905-38.155 35.521-61.78 43.851-20.161 7.079-40.477 10.628-60.909 10.628-13.416 0-26.881-1.53-40.387-4.595"
      fill="url(#a)"/>
    <path
      d="m136.159 56.307c4.306-9.042 21.085-25.129 29.417-25.666 7.75-.5 31.333 22.832 28.833 27.582-.227.431-1.092 2.117-7.25-1.167-12.501-6.665-24.499-12.083-47.834 2.085-.235.143-.75.256-1.317.256-1.357 0-3.012-.648-1.849-3.09"
      fill="url(#c)"/>
    <path
      d="m20.242 194.224c0-102.468 62.845 0 140 0 77.152 0 149-105.468 149-3.001 0 102.469-66.387 166-143.54 166-77.154 0-145.46-60.532-145.46-162.999"
      fill="url(#e)"/>
    <path
      d="m28.318 186.385c-7.555-9.641-8.06-22.967-1.499-39.616 6.469-16.274 18.016-31.408 34.317-44.97 16.286-13.635 33.476-22 51.095-24.862 5.785-.91 10.892-1.37 15.18-1.37h.004c9.405 0 15.385 2.152 18.29 6.593 3.934 6.274 3.465 18.588-1.441 37.651-4.898 18.671-15.166 35.382-30.517 49.67-15.4 14.34-31.684 23.262-48.402 26.515-4.238.809-8.201 1.213-11.878 1.213-11.04 0-19.507-3.634-25.149-10.824"
      fill="url(#f)"/>
    <g clip-path="url(#g)">
      <path
        d="m0 0c-2.683-26.381-10.673-51.288-23.738-74.006-20.77-34.758-45.291-63.772-72.863-86.219-13.962-10.912-29.482-20.014-46.122-27.049-10.353-4.301-21.717-4.144-33.509.426-17.035 6.998-32.543 15.951-46.078 26.598-27.598 22.464-52.122 51.476-72.881 86.208-13.082 22.75-21.073 47.639-23.746 73.903-2.004 49.55 11.027 91.768 38.722 125.469 5.721 6.778 11.357 12.497 17.214 17.472 19.107 15.771 40.459 26.421 63.46 31.653 13.267 3.011 26.684 4.538 39.877 4.538 20.073 0 40.309-3.532 60.144-10.498 23.083-8.139 43.533-22.658 60.77-43.142 27.709-33.716 40.744-75.916 38.75-125.353m-35.214 128.293c-17.786 21.138-38.907 36.123-62.778 44.54-20.33 7.139-41.079 10.759-61.672 10.759-13.536 0-27.295-1.565-40.897-4.653-23.709-5.393-45.706-16.362-65.394-32.612-6.072-5.158-11.889-11.059-17.794-18.054-28.451-34.621-41.834-77.91-39.772-128.739 2.746-27.029 10.939-52.56 24.363-75.902 21.05-35.22 45.933-64.646 73.974-87.474 13.891-10.926 29.779-20.1 47.246-27.276 6.687-2.593 13.269-3.908 19.561-3.908 5.963 0 11.826 1.18 17.433 3.51 17.025 7.199 32.903 16.512 47.211 27.697 28.021 22.813 52.902 52.24 73.962 87.486 13.408 23.311 21.6 48.858 24.355 76.007 2.051 50.716-11.336 93.986-39.798 128.619"
        fill="#093309" transform="translate(323.7281 195.0259)"/>
    </g>
    <path
      d="m34.617 178.138c-6.628-8.159-6.968-19.463-1.105-33.824 5.949-14.443 16.486-27.788 31.614-39.939 15.041-12.152 30.763-19.549 46.993-22.096 16.232-2.464 26.005-1.189 29.403 3.825 3.314 5.099 2.806 15.89-1.614 32.462-4.504 16.573-13.852 31.274-28.043 44.02-14.277 12.832-29.064 20.65-44.445 23.539-3.913.721-7.546 1.082-10.895 1.083-9.671 0-16.985-3.011-21.908-9.07"
      fill="url(#i)"/>
    <path
      d="m165.446 47.268h-.17c-8.752 0-17.758 3.144-27.022 9.518 7.563-10.624 15.126-17.76 22.859-21.417 1.445-.679 2.805-1.02 4.163-1.105h.17c1.361.085 2.721.426 4.165 1.105 7.735 3.657 15.299 10.793 22.861 21.417-9.264-6.374-18.272-9.518-27.026-9.518"
      fill="url(#j)"/>
    <g clip-path="url(#k)">
      <path
        d="m0 0c-5.786-6.953-11.464-11.691-17.306-14.453-1.209-.57-2.387-.885-3.577-.961-1.213.076-2.39.391-3.598.961-5.846 2.764-11.524 7.504-17.308 14.455 7.056-3.656 14.102-5.51 20.978-5.51 6.78 0 13.77 1.852 20.811 5.508m7.32 6.646c-.514.522-1.372.606-1.982.192-8.917-6.135-17.773-9.246-26.318-9.246-8.431 0-17.227 3.111-26.146 9.246-.603.412-1.462.33-1.982-.192-.528-.537-.594-1.373-.157-1.986 7.818-10.978 15.493-18.148 23.461-21.916 1.568-.74 3.136-1.15 4.824-1.254h.169l.1.002c1.611.104 3.158.512 4.728 1.252 7.969 3.768 15.644 10.938 23.462 21.916.437.613.371 1.449-.159 1.986"
        transform="translate(186.2564 51.2246)"/>
      <path
        d="m0 0c-1.864-2.748-6.494-4.143-13.763-4.143-3.831 0-8.417.403-13.628 1.194-15.814 2.48-31.299 9.769-46.026 21.668-14.765 11.859-25.194 25.019-30.999 39.115-5.549 13.59-5.281 24.273.796 31.758 4.482 5.515 11.317 8.312 20.317 8.312 3.205 0 6.745-.353 10.517-1.048 14.941-2.805 29.56-10.559 43.454-23.049 13.818-12.411 23.048-26.887 27.433-43.022 5.267-19.752 3.934-27.652 1.899-30.785m-26.593 76.857c-14.459 12.997-29.747 21.081-45.444 24.029-15.924 2.935-27.704-.023-34.764-8.709-7.094-8.736-7.568-20.812-1.408-35.898 6.074-14.748 16.915-28.459 32.22-40.752 15.29-12.353 31.429-19.933 47.973-22.527 5.432-.824 10.227-1.242 14.253-1.242h.003c8.831 0 14.445 1.949 17.174 5.974 3.693 5.686 3.251 16.844-1.355 34.12-4.599 16.918-14.238 32.06-28.652 45.005"
        transform="translate(139.8267 87.2539)"/>
    </g>
    <path
      d="m263.183 195.963c-16.716-3.253-33-12.176-48.402-26.516-15.35-14.287-25.616-30.998-30.515-49.67-4.906-19.062-5.375-31.376-1.441-37.65 2.905-4.442 8.885-6.594 18.29-6.594h.003c4.288 0 9.396.461 15.181 1.371 17.618 2.861 34.808 11.227 51.093 24.862 16.301 13.562 27.849 28.695 34.319 44.97 6.56 16.649 6.054 29.975-1.501 39.615-5.64 7.19-14.111 10.825-25.15 10.825-3.677 0-7.639-.403-11.877-1.213"
      fill="url(#l)"/>
    <path
      d="m261.109 186.092c-15.381-2.889-30.168-10.707-44.443-23.539-14.192-12.746-23.54-27.448-28.043-44.019-4.42-16.573-4.929-27.364-1.616-32.463 3.399-5.014 13.172-6.29 29.403-3.824 16.23 2.546 31.953 9.943 46.994 22.095 15.127 12.15 25.664 25.496 31.613 39.94 5.864 14.361 5.524 25.663-1.105 33.822-4.923 6.059-12.236 9.071-21.908 9.07-3.349 0-6.982-.361-10.895-1.082"
      fill="url(#m)"/>
    <g clip-path="url(#n)">
      <path
        d="m0 0c4.384 16.135 13.614 30.611 27.433 43.021 13.892 12.491 28.513 20.245 43.453 23.049 3.773.696 7.312 1.049 10.517 1.049 9 0 15.836-2.797 20.317-8.312 6.078-7.485 6.345-18.168.797-31.758-5.805-14.096-16.235-27.256-31-39.115-14.727-11.899-30.211-19.188-46.026-21.668-5.211-.791-9.797-1.194-13.627-1.194-7.269 0-11.899 1.395-13.762 4.143-2.036 3.133-3.37 11.033 1.898 30.785m-3.958 1.066c-4.606-17.275-5.048-28.433-1.354-34.119 2.728-4.025 8.342-5.974 17.172-5.974h.004c4.026 0 8.821.418 14.252 1.242 16.543 2.594 32.684 10.174 47.973 22.527 15.305 12.293 26.146 26.004 32.221 40.752 6.16 15.086 5.685 27.162-1.409 35.897-7.06 8.687-18.839 11.645-34.763 8.709-15.698-2.948-30.985-11.032-45.446-24.028-14.412-12.945-24.051-28.088-28.65-45.006"
        transform="translate(190.6021 118.0059)"/>
    </g>
    <path
      d="m249.937 173.328c-21.313-13.58-21.445-22.105-7.028-37.44 11.642-12.382 20.31-20.427 37.759-1.272 8.98 9.855 15.808 27.644 8.668 37.739-3.466 4.901-10.212 6.956-17.516 6.956-7.742.001-16.112-2.307-21.883-5.983"
      fill="url(#p)"/>
    <path
      d="m48.742 95.723c-5.716-1.428 31.353-41.565 49.5-57.166 18.148-15.602 58.636-36.923 60.5-31.334s-39.019 21.398-57.166 36.999c-18.065 15.53-51.196 51.504-52.813 51.503-.008 0-.015 0-.021-.002"
      fill="url(#q)"/>
    <path
      d="m229.648 46.557c-18.147-15.601-54.656-38.335-54.656-38.335 1.863-5.587 39.842 17.067 57.99 32.669 18.148 15.601 55.217 55.738 49.5 57.166-.006.001-.013.002-.02.002-1.618 0-34.749-35.972-52.814-51.502"
      fill="url(#r)"/>
    <path
      d="m70.876 295.378c-.052-25.743 53.501-2.737 91.145-1.836 11.524.276 23.936-.924 35.739-2.124 28.675-2.914 53.758-5.828 53.795 12.41.053 25.745-52.326 46.975-89.977 47.052-.048 0-.096 0-.145 0-37.642 0-90.506-29.789-90.557-55.502"
      fill="url(#s)"/>
    <path
      d="m268.117 178.723c-17.125-1.25-28.001-13.75-26.876-13.75s13.971 9.54 25.875 10.5c12.642 1.02 18.476-3.937 21.203-8.892 2.621-4.763 2.375-9.526 2.547-8.983 3.436 10.778-4.657 21.223-20.115 21.223-.856 0-1.734-.032-2.634-.098"
      fill="url(#u)"/>
    <path
      d="m40.867 170.688c-7.14-10.094-.312-27.883 8.669-37.741 17.449-19.154 26.117-11.107 37.759 1.275 14.417 15.335 14.284 23.858-7.029 37.439-5.771 3.676-14.141 5.985-21.882 5.984-7.305 0-14.05-2.056-17.517-6.957"
      fill="url(#v)"/>
    <path
      d="m39.336 155.931c.173-.542-.074 4.22 2.547 8.984 2.728 4.955 8.561 9.912 21.203 8.892 11.905-.961 25.875-10.5 25.875-10.5 1.125 0-9.749 12.5-26.874 13.75-.899.066-1.778.098-2.633.098-15.461.001-23.553-10.444-20.118-21.224"
      fill="url(#w)"/>
  </g>
  <text font-family="Arial" font-size="450" x="600" y="380" fill="darkgray">atmos</text>
</svg>
