<?xml version="1.0" encoding="UTF-8" standalone="no"?> <svg xmlns="http://www.w3.org/2000/svg" xmlns:xlink="http://www.w3.org/1999/xlink" style="isolation:isolate" viewBox="0 0 1012.032 232.63" width="1012.032" height="232.63"><defs><clipPath id="_clipPath_D9k4Vu9XCaQMuZEAl51mgbzXTvDsM5tf"><rect width="1012.032" height="232.63"></rect></clipPath></defs><g clip-path="url(#_clipPath_D9k4Vu9XCaQMuZEAl51mgbzXTvDsM5tf)"><path d=" M 276.772 146.368 C 277.713 144.095 278.498 142.651 278.918 141.108 C 281.059 133.236 283.047 125.322 285.199 117.453 C 288.454 105.55 299.412 104.105 308.674 106.111 C 311.859 106.801 312.628 109.565 311.956 112.61 C 310.074 121.139 308.126 129.654 306.318 138.198 C 306.081 139.317 306.142 140.784 306.685 141.738 C 311.277 149.805 310.253 156.634 303.327 162.978 C 300.837 165.258 301.242 175.592 304.247 176.812 C 305.958 177.507 308.974 177.065 310.411 175.906 C 313.026 173.799 315.222 170.977 317.034 168.101 C 326.783 152.624 332.118 135.334 336.66 117.849 C 339.665 106.282 348.36 104.124 358.219 105.936 C 361.223 106.488 362.179 108.735 361.729 111.422 C 360.193 120.597 358.517 129.749 356.856 138.903 C 354.71 150.737 352.513 162.561 350.384 174.398 C 350.183 175.513 350.219 176.694 350.304 177.833 C 350.773 184.118 354.648 186.456 360.934 184.029 C 360.934 176.733 360.114 169.223 361.078 161.949 C 364.951 132.726 387.206 108.952 413.695 104.938 C 416.864 104.458 417.677 103.006 418.023 99.918 C 420.711 75.922 424.98 52.2 434.338 29.82 C 437.546 22.148 441.865 14.494 447.346 8.311 C 460.022 -5.987 479.563 -1.093 484.749 17.294 C 488.703 31.315 487.201 45.507 484.278 59.49 C 477.398 92.393 463.293 122.478 447.183 151.659 C 444.089 157.263 443.23 162.356 444.619 168.332 C 446.726 177.399 448.51 186.54 450.556 195.622 C 452.142 202.661 450.994 207.175 446.543 209.174 C 441.57 211.408 431.503 211.51 428.063 205.776 C 425.58 201.636 423.699 197.135 421.616 192.928 C 419.414 195.032 416.957 197.339 414.545 199.693 C 403.058 210.906 387.006 212.563 373.641 203.699 C 371.632 202.367 370.28 202.389 368.271 203.526 C 361.006 207.636 353.176 209.63 344.775 209.208 C 338.049 208.87 332.554 206.08 330.103 199.775 C 327.706 193.608 326.446 186.998 324.807 181.021 C 323.738 183.752 322.548 187.243 321.027 190.584 C 318.19 196.815 314.322 202.267 308.424 206.038 C 299.08 212.012 287.68 209.517 281.845 200.05 C 277.783 193.46 275.386 186.335 275.661 178.453 C 275.774 175.199 275.68 171.938 275.68 168.68 C 275.301 168.554 274.922 168.428 274.543 168.301 C 273.975 169.508 273.248 170.667 272.863 171.93 C 268.467 186.357 260.869 198.403 246.803 205.036 C 232.167 211.938 217.868 210.977 204.55 201.415 C 202.44 199.9 201.148 199.827 198.995 201.335 C 188.445 208.722 176.61 211.216 164.24 207.988 C 159.237 206.682 154.656 203.103 150.396 199.881 C 148.273 198.275 146.966 197.685 144.434 198.649 C 123.1 206.769 100.943 210.082 78.194 209.079 C 65.356 208.513 52.851 205.874 41.223 200.213 C 16.384 188.122 2.652 167.829 0.517 140.648 C -2.087 107.495 4.887 76.438 27.223 50.692 C 48.904 25.701 76.653 16.197 109.256 22.611 C 126.12 25.929 138.146 39.906 140.287 57.025 C 141.54 67.041 140.979 76.782 136.435 86.01 C 132.625 93.748 123.976 97.02 116.007 93.739 C 111.868 92.035 109.278 88.528 109.599 84.038 C 109.977 78.761 110.981 73.532 111.521 68.262 C 112.975 54.065 105.567 45.724 91.329 45.539 C 74.046 45.315 60.698 53.181 50.314 66.354 C 39.224 80.422 33.85 96.875 32.833 114.536 C 32.277 124.191 32.211 134.174 34.026 143.604 C 38.205 165.318 52.485 177.723 73.918 181.565 C 95.509 185.435 116.446 181.898 136.826 174.352 C 137.071 174.261 137.245 173.98 136.521 174.653 C 136.127 160.673 134.829 147.492 135.563 134.425 C 137.684 96.66 144.34 59.85 162.116 25.853 C 166.138 18.161 171.061 11.137 178.123 5.857 C 188.279 -1.738 200.863 -1.812 208.393 5.992 C 214.254 12.067 216.098 19.923 216.957 28.024 C 219.388 50.94 213.437 72.402 205.263 93.406 C 195.431 118.674 181.963 141.967 166.252 164.004 C 161.457 170.73 165.826 182.549 173.911 184.653 C 179.607 186.135 184.955 185.03 190.111 182.365 C 189.222 177.208 187.81 172.206 187.583 167.15 C 186.595 145.156 192.456 125.913 211.34 112.578 C 225.136 102.837 244.878 102.431 257.889 111.743 C 267.604 118.697 272.392 128.858 274.691 140.331 C 274.945 141.596 275.159 142.871 275.459 144.125 C 275.552 144.514 275.868 144.849 276.772 146.368 Z M 161.428 136.858 C 161.93 136.951 162.432 137.044 162.934 137.138 C 178.175 110.606 191.57 83.3 195.425 52.421 C 196.39 44.692 195.811 36.735 195.497 28.9 C 195.381 26.003 194.471 22.601 190.771 22.025 C 187.082 21.451 185.446 24.472 184.123 27.113 C 181.95 31.452 179.841 35.875 178.279 40.458 C 170.86 62.227 166.481 84.694 163.757 107.476 C 162.591 117.223 162.181 127.061 161.428 136.858 Z M 215.039 159.131 C 221.033 159.701 222.947 161.463 223.074 167.17 C 223.147 170.421 222.836 173.772 222.078 176.93 C 220.921 181.751 221.396 183.295 226.063 185.205 C 230.329 186.95 234.543 186.47 238.467 184.218 C 245.683 180.077 248.527 173.121 249.85 165.426 C 250.045 164.293 248.72 162.797 247.898 161.608 C 244.845 157.195 240.628 153.229 238.874 148.364 C 236.665 142.238 236.441 135.396 235.293 128.448 C 226.699 126.224 214.056 138.382 215.039 159.131 Z M 442.524 125.144 C 443.766 123.833 444.163 123.58 444.323 123.222 C 454.389 100.683 463.471 77.802 466.713 53.114 C 467.886 44.179 468.89 35.097 466.063 26.245 C 465.517 24.535 463.852 23.183 462.704 21.666 C 461.218 22.858 459.013 23.754 458.377 25.297 C 456.261 30.431 453.951 35.675 453.076 41.096 C 449.863 61.014 447.059 81.003 444.4 101.005 C 443.387 108.624 443.181 116.351 442.524 125.144 Z M 390.931 183.798 C 395.833 188.423 402.58 188.455 407.63 183.593 C 410.811 180.531 413.643 177.042 416.228 173.455 C 417.271 172.008 417.69 169.771 417.622 167.921 C 417.178 155.755 416.517 143.597 415.947 131.436 C 415.882 130.062 415.938 128.683 415.938 127.242 C 403.857 129.077 390.15 145.494 389.329 158.642 C 397.455 160.401 397.45 174.637 390.931 183.798 Z " fill="rgb(238,238,238)"></path><path d=" M 844.011 172.763 C 849.207 165.164 855.53 157.308 860.297 148.6 C 866.544 137.189 871.691 125.162 877.07 113.291 C 881.017 104.581 894.728 99.446 903.167 104.074 C 904.389 104.744 905.611 107.171 905.338 108.47 C 904.642 111.782 903.355 115.041 901.849 118.097 C 897.479 126.962 897.01 135.312 904.003 143.207 C 906.564 146.099 908.796 149.292 911.08 152.419 C 917.928 161.797 924.377 171.337 921.934 184.082 C 926.099 183.683 926.55 181.835 925.729 178.499 C 920.774 158.362 924.048 139.634 936.909 123.248 C 947.613 109.609 961.98 103.601 979.398 105.891 C 991.666 107.503 1000.449 116.811 1001.514 129.202 C 1002.841 144.646 997.026 156.922 983.838 164.9 C 977.055 169.004 969.392 171.785 961.887 174.504 C 958.68 175.666 957.404 177.927 957.151 180.364 C 957.005 181.77 959.141 183.913 960.753 184.917 C 967.834 189.329 980.961 188.245 987.504 182.48 C 991.894 178.612 995.85 174.215 999.714 169.804 C 1001.972 167.227 1004.627 164.761 1007.676 166.569 C 1009.786 167.819 1011.52 171.141 1011.836 173.731 C 1013.2 184.919 1007.263 192.928 999.101 199.478 C 983.695 211.842 958.226 212.826 941.297 201.743 C 938.708 200.048 936.917 200.227 934.007 201.182 C 926.998 203.484 919.66 204.784 912.462 206.518 C 910.974 206.876 909.27 207.01 908.086 207.845 C 900.281 213.347 891.711 215.057 882.354 213.683 C 871.644 212.109 865.784 206.191 864.549 195.388 C 864.156 195.449 863.654 195.374 863.395 195.59 C 854.512 202.985 843.988 205.72 832.751 206.564 C 831.267 206.676 829.593 207.076 828.407 207.911 C 820.035 213.806 810.814 215.231 800.943 213.437 C 792.619 211.924 785.874 205.328 785.384 198.341 C 784.837 190.554 789.97 184.322 797.772 183.559 C 800.467 183.295 803.214 183.436 805.93 183.559 C 808.602 183.68 811.263 184.012 814.434 184.297 C 813.835 172.171 806.677 164.003 799.369 155.056 C 798.401 156.654 797.659 157.781 797.013 158.961 C 790.145 171.524 781.474 182.706 771.226 192.68 C 766.345 197.43 761.054 198.399 757.47 195.241 C 753.68 191.9 753.665 186.017 757.438 180.767 C 757.773 180.301 758.117 179.838 758.498 179.411 C 775.348 160.559 787.435 138.821 796.527 115.413 C 800.729 104.596 807.985 102.703 817.11 102.967 C 826.426 103.237 828.59 106.086 823.989 114.042 C 816.276 127.378 818.989 138.046 828.658 149.084 C 834.662 155.936 838.743 164.472 844.011 172.763 Z M 949.878 158.952 C 950.744 159.233 951.032 159.43 951.279 159.388 C 952.678 159.15 954.111 158.989 955.454 158.558 C 964.943 155.515 973.67 151.369 977.77 141.4 C 979.775 136.524 978.487 130.824 975.236 128.366 C 971.809 125.774 965.678 126.037 961.638 129.487 C 952.524 137.27 950.451 147.845 949.878 158.952 Z M 879.122 155.306 C 876.568 158.754 877.181 158.577 878.11 161.787 C 879.221 165.624 879.725 169.849 879.407 173.819 C 879.15 177.027 877.285 180.106 876.164 183.158 C 882.119 183.465 887.907 183.764 894.138 184.085 C 893.28 172.083 886.256 163.762 879.122 155.306 Z " fill="rgb(238,238,238)"></path><path d=" M 515.58 159.17 C 515.959 131.195 519.5 105.932 530.695 82.24 C 544.678 52.648 566.415 31.956 598.794 23.921 C 613.734 20.213 628.884 19.935 643.953 23.346 C 682.781 32.135 694.997 67.929 683.296 99.266 C 675.726 119.54 660.72 132.724 640.987 140.067 C 630.506 143.967 619.128 145.513 608.091 147.817 C 605.688 148.319 604.805 149.026 604.387 151.439 C 601.405 168.658 598.259 185.849 595.125 203.042 C 594.741 205.148 594.226 207.245 593.591 209.289 C 587.315 229.478 571.481 237.174 551.474 229.999 C 538.169 225.227 529.65 215.644 523.813 203.255 C 516.916 188.617 515.523 172.976 515.58 159.17 Z M 608.948 125.722 C 612.527 125.102 615.356 124.777 618.101 124.107 C 630.264 121.141 641.169 116.075 648.049 104.92 C 654.513 94.439 656.117 82.912 654.06 70.983 C 652.001 59.044 644.844 50.76 633.232 47.585 C 612.181 41.829 592.57 45.146 575.442 59.299 C 564.124 68.652 556.503 80.738 551.071 94.22 C 544.591 110.303 541.08 127.124 540.085 144.38 C 539.292 158.13 538.839 172.069 543.472 185.279 C 545.642 191.465 549.156 197.445 553.206 202.622 C 556.556 206.904 561.104 205.669 563.372 200.622 C 564.827 197.383 565.981 193.92 566.657 190.439 C 568.377 181.584 569.747 172.661 571.269 163.767 C 572.178 158.46 573.11 153.156 574.079 147.584 C 570.666 147.016 567.842 146.662 565.071 146.061 C 558.244 144.581 554.801 139.521 555.979 132.882 C 557.071 126.723 561.779 123.675 568.812 124.548 C 571.739 124.911 574.671 125.229 577.75 125.584 C 578.195 123.304 578.578 121.494 578.9 119.674 C 581.298 106.136 583.65 92.59 586.09 79.059 C 587.15 73.18 589.968 68.457 596.002 66.657 C 601.893 64.899 608.159 64.045 613.293 68.134 C 618.256 72.087 616.936 78.006 616.058 83.39 C 613.805 97.226 611.424 111.04 608.948 125.722 Z " fill="rgb(238,238,238)"></path><path d=" M 753.684 150.875 C 753.305 167.132 749.632 180.809 740.126 192.358 C 728.28 206.751 712.883 212.426 694.813 207.871 C 677.489 203.504 669.074 190.307 666.108 173.704 C 662.729 154.79 666.496 137.116 678.479 121.744 C 690.262 106.628 710.704 100.91 727.982 107.897 C 742.716 113.856 749.646 125.969 752.577 140.834 C 753.322 144.609 753.436 148.509 753.684 150.875 Z M 691.991 160.194 C 692.511 164.295 692.722 168.465 693.618 172.482 C 695.313 180.082 700.289 184.859 706.608 185.558 C 712.856 186.249 718.481 182.971 721.827 175.902 C 727.253 164.44 727.714 152.38 724.359 140.331 C 722.683 134.31 718.952 129.441 711.965 128.826 C 704.743 128.19 700.129 132.229 696.873 138.113 C 693.083 144.96 692.493 152.518 691.991 160.194 Z " fill="rgb(238,238,238)"></path></g></svg> 
