<?xml version="1.0" encoding="UTF-8" standalone="no"?>
<svg
   viewBox="0 0 64 64"
   version="1.1"
   id="svg5"
   sodipodi:docname="opentofu-icon.svg"
   width="64"
   height="64"
   inkscape:version="1.3.2 (091e20e, 2023-11-25)"
   xmlns:inkscape="http://www.inkscape.org/namespaces/inkscape"
   xmlns:sodipodi="http://sodipodi.sourceforge.net/DTD/sodipodi-0.dtd"
   xmlns="http://www.w3.org/2000/svg"
   xmlns:svg="http://www.w3.org/2000/svg">
  <defs
     id="defs5" />
  <sodipodi:namedview
     id="namedview5"
     pagecolor="#ffffff"
     bordercolor="#000000"
     borderopacity="0.25"
     inkscape:showpageshadow="2"
     inkscape:pageopacity="0.0"
     inkscape:pagecheckerboard="0"
     inkscape:deskcolor="#d1d1d1"
     inkscape:zoom="10.625"
     inkscape:cx="32"
     inkscape:cy="32"
     inkscape:window-width="1392"
     inkscape:window-height="997"
     inkscape:window-x="1781"
     inkscape:window-y="25"
     inkscape:window-maximized="0"
     inkscape:current-layer="svg5" />
  <path
     fill="#0d1a2b"
     fill-rule="evenodd"
     d="m 34.182448,0.55488287 a 4.4893025,4.4893025 0 0 0 -4.32397,0 L 7.6986302,12.734799 a 5.0892983,5.0892983 0 0 0 -0.054666,0.03067 L 4.7266507,14.368121 A 4.4893025,4.4893025 0 0 0 2.4,18.301427 v 27.397145 c 0,1.637322 0.8906605,3.145312 2.3266507,3.933307 l 22.3691793,12.295915 0.08667,0.04533 2.675982,1.47199 a 4.4893025,4.4893025 0 0 0 4.32397,0 l 2.682648,-1.474657 0.08,-0.04267 22.369179,-12.295915 a 4.4893025,4.4893025 0 0 0 2.327984,-3.933307 V 18.302761 a 4.4893025,4.4893025 0 0 0 -2.327988,-3.933306 l -2.906646,-1.599989 a 3.8146404,3.8146404 0 0 0 -0.06533,-0.03467 z m 1.42399,31.44378413 20.735858,-11.397255 0.06267,-0.03467 0.247998,-0.135999 a 1.0359929,1.0359929 0 0 1 1.534656,0.906661 v 21.323853 c 0,0.787995 -0.843994,1.287991 -1.533323,0.90666 l -0.191998,-0.103999 a 7.1906172,7.1906172 0 0 0 -0.119999,-0.068 z M 7.6466306,20.572079 7.6999635,20.602745 28.433154,31.998667 7.6986302,43.395922 a 6.7599535,6.7599535 0 0 0 -0.1146659,0.06667 L 7.3879657,43.569254 A 1.0359929,1.0359929 0 0 1 5.8533096,42.662593 V 21.33874 c 0,-0.786661 0.8439942,-1.286658 1.5333228,-0.906661 z M 54.710307,15.777445 35.281107,5.0988516 A 1.0359929,1.0359929 0 0 0 33.747784,5.9761789 V 29.08002 l 20.96119,-11.521254 a 1.0359929,1.0359929 0 0 0 0,-1.781321 z M 9.3372856,17.561433 30.293141,29.081353 V 5.9748456 A 1.0359929,1.0359929 0 0 0 28.759819,5.0988516 L 9.334619,15.776112 a 1.0359929,1.0359929 0 0 0 0,1.786654 z m 0.025333,30.677122 A 1.0359929,1.0359929 0 0 1 9.3079525,46.454567 L 30.293141,34.91998 v 23.103841 a 1.0359929,1.0359929 0 0 1 -1.493323,0.89866 z M 33.746451,57.993154 V 34.918647 l 20.989189,11.53592 a 1.0359929,1.0359929 0 0 1 -0.05733,1.782655 L 35.242441,58.919815 a 1.0359929,1.0359929 0 0 1 -1.49599,-0.897327 v -0.03067 z"
     clip-rule="evenodd"
     id="path1"
     style="stroke-width:1.33332" />
  <path
     fill="#e7c200"
     d="m 31.525133,3.5788621 a 1.0359929,1.0359929 0 0 1 0.997326,0 L 54.682307,15.758778 a 1.0359929,1.0359929 0 0 1 0,1.815988 L 32.522459,29.754682 a 1.0346596,1.0346596 0 0 1 -0.997326,0 L 9.3652854,17.574766 a 1.0359929,1.0359929 0 0 1 0,-1.815988 z"
     id="path2"
     style="stroke-width:1.33332" />
  <path
     fill="#ffda18"
     d="m 5.8546429,21.337407 c 0,-0.787995 0.8439942,-1.287992 1.5346561,-0.907994 l 22.369179,12.294582 a 1.0359929,1.0359929 0 0 1 0.53733,0.907994 v 24.359832 c 0,0.786661 -0.843994,1.286658 -1.534656,0.906661 L 6.3906392,46.605233 A 1.0359929,1.0359929 0 0 1 5.8546429,45.695906 Z"
     id="path3"
     style="stroke-width:1.33332" />
  <path
     fill="#ffffff"
     d="m 56.655627,20.429413 a 1.0359929,1.0359929 0 0 1 1.533323,0.90666 v 24.359833 a 1.0359929,1.0359929 0 0 1 -0.535997,0.907993 L 35.283774,58.899815 a 1.0359929,1.0359929 0 0 1 -1.53599,-0.907994 V 33.631989 c 0,-0.377331 0.206666,-0.725329 0.53733,-0.906661 z"
     id="path4"
     style="stroke-width:1.33332" />
  <path
     fill="#0d1a2b"
     d="m 15.249245,40.450608 -0.0027,0.03333 -5.243964,-2.759981 0.0027,-0.03333 c 0.121333,-1.630655 1.394657,-2.335983 2.842647,-1.573322 1.44799,0.759995 2.522649,2.701315 2.401317,4.333303 z m 8.251943,4.761301 -0.0027,0.03333 -5.243964,-2.758648 0.0027,-0.03333 c 0.119999,-1.631988 1.393324,-2.337317 2.841314,-1.574655 1.44799,0.759994 2.523983,2.701314 2.401317,4.333303 z"
     id="path5"
     style="stroke-width:1.33332" />
</svg>
