<svg xmlns="http://www.w3.org/2000/svg" xmlns:xlink="http://www.w3.org/1999/xlink" zoomAndPan="magnify" viewBox="0 0 192 191.999996" preserveAspectRatio="xMidYMid meet" version="1.0"><path fill="#ffffff" d="M 117.269531 58.875 L 119.5 50.671875 L 127.792969 48.460938 L 119.5 46.253906 L 117.269531 38.050781 L 115.035156 46.253906 L 106.742188 48.460938 L 115.035156 50.671875 Z M 117.269531 58.875 " fill-opacity="1" fill-rule="nonzero"/><path fill="#ffffff" d="M 163.125 79.195312 L 161.351562 85.703125 L 154.777344 87.453125 L 161.351562 89.207031 L 163.125 95.714844 L 164.894531 89.207031 L 171.472656 87.453125 L 164.894531 85.703125 Z M 163.125 79.195312 " fill-opacity="1" fill-rule="nonzero"/><path fill="#ffffff" d="M 181.980469 51.519531 L 180.484375 46.019531 L 178.988281 51.519531 L 173.429688 53 L 178.988281 54.480469 L 180.484375 59.980469 L 181.980469 54.480469 L 187.539062 53 Z M 181.980469 51.519531 " fill-opacity="1" fill-rule="nonzero"/><path fill="#ffffff" d="M 151.78125 101.105469 L 151.8125 101.078125 C 148.183594 95.535156 143.296875 91.1875 137.667969 88.285156 C 138.976562 85.765625 140.238281 83.152344 141.453125 80.441406 C 142.304688 80.308594 143.433594 79.996094 144.757812 79.296875 L 149.492188 85.363281 C 149.585938 85.480469 149.730469 85.546875 149.878906 85.535156 C 150.03125 85.523438 150.164062 85.4375 150.238281 85.304688 L 154.171875 78.21875 C 154.21875 78.136719 154.238281 78.042969 154.226562 77.949219 L 153.242188 70.554688 C 154.359375 68.753906 155.421875 66.730469 156.410156 64.542969 C 162.089844 51.9375 160.945312 43.84375 159.753906 40.140625 C 159.363281 38.921875 158.996094 38.296875 158.984375 38.269531 C 158.890625 38.113281 158.714844 38.03125 158.535156 38.054688 C 158.070312 38.117188 147.082031 39.8125 137.78125 57.585938 C 137.769531 57.609375 136.578125 59.976562 135.484375 63.113281 L 129.105469 67.238281 C 129.027344 67.289062 128.96875 67.359375 128.933594 67.441406 L 125.855469 74.933594 C 125.816406 75.03125 125.8125 75.136719 125.84375 75.234375 C 125.859375 75.273438 125.878906 75.3125 125.902344 75.351562 C 125.988281 75.472656 126.132812 75.546875 126.28125 75.542969 L 134.003906 75.355469 C 134.359375 76.632812 134.980469 77.679688 135.828125 78.484375 C 134.65625 81.074219 133.441406 83.578125 132.179688 85.984375 C 128.554688 84.8125 124.710938 84.191406 120.765625 84.191406 C 119.742188 84.191406 118.667969 84.242188 117.574219 84.335938 L 116.347656 84.441406 L 115.863281 83.316406 C 109.441406 68.316406 93.898438 58.242188 77.1875 58.242188 C 54.109375 58.242188 35.335938 76.433594 35.335938 98.792969 L 35.335938 100.597656 L 33.765625 100.714844 C 32.863281 100.785156 31.941406 100.894531 31.027344 101.046875 C 27.207031 101.625 23.507812 102.984375 20.21875 105.007812 L 20.222656 105.011719 L 18.957031 105.933594 C 11.15625 111.320312 6.5 120.046875 6.5 129.285156 C 6.5 145.082031 19.753906 157.933594 36.046875 157.933594 L 119.867188 157.933594 C 140.816406 157.933594 157.863281 141.414062 157.863281 121.105469 C 157.863281 114.453125 156 107.929688 152.480469 102.234375 Z M 146.242188 55.753906 C 148.613281 55.007812 151.148438 56.304688 151.902344 58.652344 C 152.65625 61 151.34375 63.503906 148.972656 64.25 C 146.597656 64.996094 144.066406 63.699219 143.3125 61.351562 C 142.558594 59.003906 143.871094 56.5 146.242188 55.753906 Z M 36.046875 151.210938 C 23.5 151.210938 13.296875 141.375 13.296875 129.285156 C 13.296875 118.742188 21.09375 109.683594 31.835938 107.738281 C 33.078125 107.542969 34.195312 107.449219 35.285156 107.449219 C 41.074219 107.449219 46.480469 109.699219 50.546875 113.648438 C 51.171875 114.433594 52.132812 114.941406 53.21875 114.941406 C 55.097656 114.941406 56.625 113.417969 56.625 111.535156 C 56.625 110.34375 56.015625 109.300781 55.089844 108.691406 C 51.796875 105.558594 47.816406 103.214844 43.402344 101.90625 L 42.253906 101.566406 L 42.179688 100.128906 C 42.15625 99.679688 42.132812 99.230469 42.132812 98.792969 C 42.132812 80.140625 57.855469 64.964844 77.1875 64.964844 C 90.570312 64.964844 102.980469 72.515625 108.800781 84.207031 L 109.628906 85.867188 L 107.878906 86.523438 C 100.277344 89.367188 93.84375 94.667969 89.496094 101.464844 C 88.996094 102.054688 88.691406 102.820312 88.691406 103.65625 C 88.691406 105.535156 90.210938 107.054688 92.085938 107.054688 C 93.375 107.054688 94.496094 106.335938 95.070312 105.28125 C 95.074219 105.285156 95.078125 105.289062 95.082031 105.292969 C 100.070312 97.289062 108.429688 91.972656 117.898438 91.066406 C 118.59375 91.023438 119.230469 91 119.867188 91 C 122.933594 91 125.894531 91.4375 128.695312 92.234375 C 112.875 118.917969 91.886719 133.214844 75.910156 140.714844 C 56.324219 149.90625 39.992188 151.113281 38.371094 151.210938 Z M 119.867188 151.210938 L 65.675781 151.210938 C 69.613281 149.855469 73.824219 148.195312 78.210938 146.144531 C 95.222656 138.207031 117.613281 122.976562 134.285156 94.421875 C 144.25 99.453125 151.066406 109.523438 151.066406 121.105469 C 151.066406 137.707031 137.070312 151.210938 119.867188 151.210938 Z M 119.867188 151.210938 " fill-opacity="1" fill-rule="nonzero"/></svg>
